<svg width="125" height="37" viewBox="0 0 125 37" fill="none" xmlns="http://www.w3.org/2000/svg">
<path fill-rule="evenodd" clip-rule="evenodd" d="M93.4163 36.2693L108.835 0H108.913L124.333 36.2693H117.303L114.7 29.9731L112.355 24.2089H112.329L110.855 20.686C110.441 19.7155 110.053 18.7841 109.69 17.8921C109.353 16.9739 109.03 15.9115 108.719 14.7047C108.434 15.8852 108.124 16.9346 107.787 17.8528C107.45 18.771 107.075 19.7155 106.661 20.686L105.187 24.2089H105.178L102.829 29.9731H102.815L100.213 36.2693H93.4163ZM56.2709 0.853125V0.871709L72.884 20.6017L89.1965 0.827887V36.2636H82.4384V26.1109C82.4384 24.9565 82.4516 23.658 82.4771 22.2151C82.529 20.7723 82.6587 19.1195 82.8657 17.2568C82.063 18.6209 81.2862 19.8015 80.5354 20.7984C79.8105 21.7953 79.137 22.7136 78.5158 23.553L72.7675 31.3447L66.8249 23.553C66.2293 22.766 65.5171 21.8216 64.6884 20.7198C63.8857 19.5916 63.1089 18.398 62.3581 17.1387C62.5651 19.0539 62.6816 20.7328 62.7076 22.1758C62.7594 23.6187 62.7854 24.9304 62.7854 26.1109V36.2636H56.2603V7.22809H46.6604V36.2696H39.4361V7.22809H30.8912V0.853125H56.2709ZM0 0.853198V36.2697H11.885C14.6816 36.2697 17.2191 35.8105 19.4977 34.8923C21.8022 33.9741 23.7831 32.7148 25.4403 31.1145C27.1233 29.4881 28.418 27.5991 29.3243 25.4479C30.2305 23.2967 30.6837 21.0012 30.6837 18.5614C30.6837 16.1216 30.2305 13.826 29.3243 11.6748C28.418 9.52366 27.1233 7.64792 25.4403 6.04762C23.7831 4.42107 21.8022 3.1487 19.4977 2.2305C17.2191 1.3123 14.6816 0.853198 11.885 0.853198H0ZM11.2636 29.8947H6.75818V7.22813H11.2636C13.2315 7.22813 14.9664 7.51675 16.4682 8.09389C17.97 8.67104 19.2259 9.48433 20.2357 10.5337C21.2714 11.5568 22.0482 12.7636 22.5661 14.154C23.1098 15.5183 23.3817 16.9874 23.3817 18.5614C23.3817 20.1355 23.1098 21.6046 22.5661 22.9688C22.0482 24.3329 21.2714 25.5397 20.2357 26.5891C19.2259 27.6123 17.97 28.4256 16.4682 29.0289C14.9664 29.606 13.2315 29.8947 11.2636 29.8947Z" fill="white"/>
</svg>
