<svg width="225" height="212" viewBox="0 0 225 212" fill="none" xmlns="http://www.w3.org/2000/svg">
<path d="M198.482 174.356C198.532 174.285 198.608 174.214 198.658 174.143C215.106 155.711 225 131.956 225 106C225 80.0442 215.106 56.2888 198.683 37.8571C198.633 37.7862 198.557 37.7388 198.507 37.6679C198.231 37.3603 197.98 37.0763 197.704 36.7924C197.603 36.6741 197.503 36.5795 197.402 36.4612L196.373 35.3491L196.348 35.3254C195.971 34.9232 195.569 34.521 195.193 34.1188L195.167 34.0951C194.364 33.2906 193.56 32.4862 192.732 31.7054L192.706 31.6817L191.501 30.546L191.426 30.475C191.049 30.1201 190.672 29.7888 190.296 29.4576C190.17 29.3393 190.045 29.221 189.894 29.1027C189.643 28.8661 189.392 28.6531 189.141 28.4402C189.065 28.3692 188.965 28.2982 188.89 28.2036C168.85 10.6946 142.006 0 112.5 0C82.9939 0 56.1496 10.6946 36.0854 28.2036C36.01 28.2746 35.9096 28.3455 35.8343 28.4402C35.5831 28.6531 35.332 28.8897 35.0809 29.1263C34.9554 29.2446 34.8298 29.3629 34.6791 29.4813C34.3025 29.8125 33.9258 30.1674 33.5491 30.4987L33.4738 30.5696L32.2684 31.7054L32.2433 31.729C31.4146 32.5098 30.611 33.3143 29.8075 34.1188L29.7824 34.1424C29.3806 34.5446 29.0039 34.9469 28.6272 35.3491L28.6021 35.3728C28.2506 35.7277 27.899 36.1063 27.5725 36.4848C27.4721 36.6031 27.3717 36.6978 27.2712 36.8161C26.995 37.1 26.7439 37.4076 26.4676 37.6915C26.4174 37.7625 26.3421 37.8098 26.2919 37.8808C9.89397 56.2888 0 80.0442 0 106C0 131.956 9.89397 155.711 26.317 174.143C26.3672 174.214 26.4425 174.285 26.4927 174.356L27.2712 175.231C27.3717 175.35 27.4721 175.444 27.5725 175.563L28.6021 176.675C28.6021 176.698 28.6272 176.698 28.6272 176.722C29.0039 177.124 29.3806 177.526 29.7824 177.905L29.8075 177.929C30.611 178.733 31.4146 179.537 32.2182 180.318L32.2433 180.342C32.6451 180.721 33.0218 181.099 33.4236 181.454L33.4989 181.525C34.3276 182.306 35.1814 183.063 36.0352 183.796C56.1496 201.305 82.9939 212 112.5 212C142.006 212 168.85 201.305 188.915 183.796C189.77 183.058 190.607 182.3 191.426 181.525L191.501 181.454C191.903 181.075 192.305 180.721 192.681 180.342L192.706 180.318C193.535 179.537 194.339 178.733 195.117 177.929L195.142 177.905C195.519 177.503 195.921 177.124 196.297 176.722C196.297 176.698 196.323 176.698 196.323 176.675C196.674 176.32 197.026 175.941 197.352 175.563C197.453 175.444 197.553 175.35 197.653 175.231C197.937 174.946 198.214 174.654 198.482 174.356ZM199.512 140.616C196.046 148.329 191.476 155.475 185.901 161.958C179.623 156.845 172.758 152.409 165.435 148.731C168.348 137.634 170.156 125.449 170.633 112.625H206.669C205.915 122.302 203.504 131.696 199.512 140.616ZM206.669 99.375H170.633C170.156 86.5509 168.348 74.3656 165.435 63.2688C172.793 59.5777 179.648 55.1295 185.901 50.0424C198.019 64.0963 205.268 81.3157 206.669 99.375ZM149.238 24.0156C159.208 27.9906 168.273 33.4799 176.258 40.3888C171.619 44.1105 166.626 47.4213 161.342 50.279C157.4 39.6317 152.352 30.3804 146.476 22.9746C147.405 23.3058 148.334 23.6607 149.238 24.0156ZM126.487 189.783C124.177 191.486 121.867 192.788 119.531 193.663V149.772C129.495 150.427 139.294 152.518 148.585 155.971C146.501 161.792 144.09 167.163 141.303 172.013C136.934 179.679 131.811 185.808 126.487 189.783ZM141.303 39.9866C144.065 44.8607 146.501 50.2317 148.585 56.0286C139.294 59.482 129.495 61.5727 119.531 62.2277V18.3607C121.842 19.2362 124.177 20.5138 126.487 22.2411C131.811 26.1924 136.934 32.3205 141.303 39.9866ZM119.531 136.499V112.625H156.571C156.169 123.083 154.788 133.233 152.478 142.863L152.402 143.147C141.864 139.382 130.781 137.14 119.531 136.499ZM119.531 99.375V75.5013C131.032 74.8388 142.081 72.5438 152.402 68.8527L152.478 69.1366C154.788 78.7665 156.169 88.8933 156.571 99.375H119.531ZM105.469 112.625V136.499C93.9676 137.161 82.9185 139.456 72.5977 143.147L72.5223 142.863C70.212 133.233 68.8309 123.107 68.4291 112.625H105.469ZM68.4291 99.375C68.8309 88.917 70.212 78.7665 72.5223 69.1366L72.5977 68.8527C82.9185 72.5438 93.9425 74.8388 105.469 75.5013V99.375H68.4291ZM105.469 149.772V193.639C103.158 192.764 100.823 191.486 98.5128 189.759C93.1892 185.808 88.0413 179.656 83.6719 171.99C80.9096 167.116 78.4738 161.745 76.3895 155.948C85.731 152.493 95.4492 150.435 105.469 149.772ZM105.469 62.2277C95.5047 61.5727 85.7061 59.482 76.4146 56.0286C78.4989 50.208 80.9096 44.8371 83.697 39.9866C88.0664 32.3205 93.1892 26.1687 98.5379 22.2174C100.848 20.5138 103.158 19.2125 105.494 18.3371V62.2277H105.469ZM75.7617 24.0156C76.6908 23.6607 77.5949 23.3058 78.524 22.9746C72.6479 30.3804 67.6004 39.6317 63.6579 50.279C58.3845 47.4397 53.3873 44.1272 48.7416 40.3888C56.7271 33.4799 65.7924 27.9906 75.7617 24.0156ZM25.4883 71.3844C28.9537 63.671 33.524 56.5254 39.0988 50.0424C45.3516 55.1295 52.207 59.5777 59.5647 63.2688C56.6518 74.3656 54.8437 86.5509 54.3666 99.375H18.3315C19.0848 89.6978 21.4955 80.3045 25.4883 71.3844ZM18.3315 112.625H54.3666C54.8437 125.449 56.6518 137.634 59.5647 148.731C52.2416 152.409 45.3771 156.845 39.0988 161.958C26.9806 147.904 19.7319 130.684 18.3315 112.625ZM75.7617 187.984C65.7924 184.009 56.7271 178.52 48.7416 171.611C53.3873 167.873 58.3845 164.584 63.6579 161.721C67.6004 172.368 72.6479 181.62 78.524 189.025C77.5949 188.694 76.6657 188.339 75.7617 187.984ZM149.238 187.984C148.309 188.339 147.405 188.694 146.476 189.025C152.352 181.62 157.4 172.368 161.342 161.721C166.616 164.56 171.613 167.873 176.258 171.611C168.317 178.491 159.177 184.03 149.238 187.984Z" fill="#4E382D" fill-opacity="0.05"/>
</svg>
